<svg data-v-423bf9ae="" xmlns="http://www.w3.org/2000/svg" viewBox="0 0 380 95" class="iconLeft"><!----><!----><!----><g data-v-423bf9ae="" id="ef70d882-1942-49f4-afdd-f29d516b3645" fill="#CF0A0A" transform="matrix(4.535147190093994,0,0,4.535147190093994,119.91758728027344,2.443629503250122)"><path d="M4.45 3.72C2.60 3.72 0.99 4.77 0.99 6.55C0.99 8.33 2.24 9.02 4.21 9.49C5.64 9.83 6.15 10.30 6.15 11.12C6.15 11.86 5.45 12.33 4.56 12.33C3.58 12.33 2.77 11.79 2.56 10.72L0.59 10.72C0.77 12.75 2.28 13.78 4.59 13.78C6.50 13.78 8.16 12.74 8.16 10.92C8.16 9.37 7.21 8.39 5.08 7.90C3.54 7.53 3.02 7.13 3.02 6.31C3.02 5.53 3.61 5.17 4.38 5.17C5.39 5.17 5.94 5.78 6.05 6.76L8.02 6.76C7.81 5.04 6.76 3.72 4.45 3.72ZM11.70 7.46L13.24 7.46L13.24 6.19L11.70 6.19L11.70 4.35L9.77 4.35L9.77 6.19L8.68 6.19L8.68 7.46L9.77 7.46L9.77 11.13C9.77 11.55 9.77 11.87 9.80 12.21C9.88 13.26 10.40 13.73 11.84 13.73C12.28 13.73 12.68 13.71 13.12 13.64L13.12 12.38C12.04 12.46 11.77 12.29 11.72 11.56C11.70 11.37 11.70 11.16 11.70 10.91ZM18.77 13.58L20.66 13.58C20.55 12.75 20.52 12.25 20.52 11.69L20.52 9.28C20.52 8.88 20.51 8.48 20.48 8.13C20.37 6.85 19.59 5.94 17.50 5.94C15.72 5.94 14.36 6.89 14.31 8.57L16.18 8.55C16.24 7.74 16.66 7.29 17.43 7.29C18.19 7.29 18.52 7.67 18.58 8.19C18.61 8.44 18.61 8.67 18.61 8.89L18.61 9.04L18.13 9.04C15.43 9.04 14.03 9.97 14.03 11.61C14.03 13.02 15.13 13.78 16.42 13.78C17.12 13.78 17.75 13.64 18.27 13.29L18.63 12.49ZM17.16 12.42C16.48 12.42 16.03 12.11 16.03 11.45C16.03 10.47 17.07 10.12 18.61 10.23L18.61 10.84C18.61 11.87 17.95 12.42 17.16 12.42ZM29.37 6.13L27.26 6.13L25.44 12.11L23.59 6.13L21.43 6.13L24.47 13.93L24.37 14.17C24.07 14.91 23.63 15.16 22.97 15.16C22.78 15.16 22.60 15.16 22.40 15.13L22.40 16.46C22.68 16.51 22.92 16.52 23.27 16.52C24.78 16.52 25.59 15.88 26.38 13.86ZM38.96 3.92L37.04 3.92L37.04 8.08L32.52 8.08L32.52 3.92L30.59 3.92L30.59 13.58L32.52 13.58L32.52 9.62L37.04 9.62L37.04 13.58L38.96 13.58ZM47.63 6.13L45.70 6.13L45.70 9.93C45.70 11.61 45.02 12.40 44.06 12.40C43.16 12.40 42.71 11.91 42.62 11.14C42.57 10.77 42.56 10.36 42.56 10.12L42.56 6.13L40.63 6.13L40.63 10.53C40.63 11.13 40.64 11.51 40.70 11.89C40.87 12.91 41.79 13.78 43.33 13.78C44.04 13.78 44.58 13.64 45.12 13.27L45.70 12.32L45.70 13.58L47.63 13.58ZM53.83 5.94C53.07 5.94 52.32 6.12 51.90 6.45L51.34 7.27L51.34 3.29L49.41 3.29L49.41 13.58L51.34 13.58L51.34 12.59L51.83 13.36C52.21 13.62 52.96 13.78 53.58 13.78C55.50 13.78 57.15 12.40 57.15 9.72C57.15 7.52 55.92 5.94 53.83 5.94ZM53.20 12.42C52.30 12.42 51.34 11.82 51.34 10.12L51.34 9.77C51.34 7.95 52.21 7.29 53.27 7.29C54.42 7.29 55.15 8.32 55.15 9.84C55.15 11.56 54.32 12.42 53.20 12.42Z"></path></g><!----><g data-v-423bf9ae="" id="0f88d65d-6736-4eb5-b73e-89f2b5b8c60c" transform="matrix(1.0259333848953247,0,0,1.0259333848953247,-7.491169452667236,-10.658169746398926)" stroke="none" fill="#CF0A0A"><path d="M106.217 55.513L58.253 12.398l-1.181-1.065-1.176 1.074L8.739 55.624 7.5 56.758l1.253 1.108 8.097 7.178 1.205 1.065 1.171-1.108 37.863-35.8 38.432 35.59 1.139 1.053 1.19-1.005 8.336-7.055 1.314-1.12z"></path><path d="M95.717 95.92V67.188l-1.39-1.293-37.229-34.47-36.669 34.671-1.18 1.117V95.92h24.437V59.136h27.601V95.92z"></path><ellipse cx="65.368" cy="80.247" rx="2.579" ry="2.389"></ellipse><path d="M11.346 97.486h92.183v6.181H11.346z"></path></g><!----></svg>